<mxfile host="app.diagrams.net" modified="2024-03-23T06:42:56.785Z" agent="Mozilla/5.0 (Macintosh; Intel Mac OS X 10_15_7) AppleWebKit/537.36 (KHTML, like Gecko) Chrome/123.0.0.0 Safari/537.36" etag="myzVQ2WSaGpQ5u__hnJH" version="24.0.8" type="github">
  <diagram name="第 1 页" id="Ej9Gm8lNlNLNFpxiJMbs">
    <mxGraphModel dx="2765" dy="2664" grid="1" gridSize="10" guides="1" tooltips="1" connect="1" arrows="1" fold="1" page="1" pageScale="1" pageWidth="827" pageHeight="1169" math="0" shadow="0">
      <root>
        <mxCell id="0" />
        <mxCell id="1" parent="0" />
        <mxCell id="6dIuSW-9CPALPskmh2Ld-1" value="" style="rounded=1;whiteSpace=wrap;html=1;strokeWidth=2;fillWeight=4;hachureGap=8;hachureAngle=45;fillColor=none;sketch=1;strokeColor=#82b366;" vertex="1" parent="1">
          <mxGeometry x="230" y="30" width="160" height="940" as="geometry" />
        </mxCell>
        <mxCell id="6dIuSW-9CPALPskmh2Ld-2" value="&lt;font color=&quot;#97d077&quot;&gt;Client&lt;/font&gt;" style="text;strokeColor=none;fillColor=none;html=1;fontSize=24;fontStyle=1;verticalAlign=middle;align=center;fontFamily=Comic Sans MS;" vertex="1" parent="1">
          <mxGeometry x="260" y="-20" width="100" height="40" as="geometry" />
        </mxCell>
        <mxCell id="6dIuSW-9CPALPskmh2Ld-3" value="&lt;font face=&quot;Verdana&quot; style=&quot;font-size: 20px;&quot;&gt;客户端下单&lt;/font&gt;" style="rounded=1;whiteSpace=wrap;html=1;strokeWidth=2;fillWeight=4;hachureGap=8;hachureAngle=45;fillColor=#d5e8d4;sketch=1;strokeColor=#82b366;" vertex="1" parent="1">
          <mxGeometry x="250" y="60" width="120" height="60" as="geometry" />
        </mxCell>
        <mxCell id="6dIuSW-9CPALPskmh2Ld-4" value="" style="rounded=1;whiteSpace=wrap;html=1;strokeWidth=2;fillWeight=4;hachureGap=8;hachureAngle=45;fillColor=none;sketch=1;strokeColor=#82b366;" vertex="1" parent="1">
          <mxGeometry x="620" y="30" width="160" height="940" as="geometry" />
        </mxCell>
        <mxCell id="6dIuSW-9CPALPskmh2Ld-5" value="&lt;font color=&quot;#97d077&quot;&gt;Order&lt;/font&gt;" style="text;strokeColor=none;fillColor=none;html=1;fontSize=24;fontStyle=1;verticalAlign=middle;align=center;fontFamily=Comic Sans MS;" vertex="1" parent="1">
          <mxGeometry x="650" y="-20" width="100" height="40" as="geometry" />
        </mxCell>
        <mxCell id="6dIuSW-9CPALPskmh2Ld-6" value="" style="rounded=1;whiteSpace=wrap;html=1;strokeWidth=2;fillWeight=4;hachureGap=8;hachureAngle=45;fillColor=none;sketch=1;strokeColor=#82b366;" vertex="1" parent="1">
          <mxGeometry x="1020" y="30" width="160" height="940" as="geometry" />
        </mxCell>
        <mxCell id="6dIuSW-9CPALPskmh2Ld-7" value="&lt;font color=&quot;#97d077&quot;&gt;Pay&lt;/font&gt;" style="text;strokeColor=none;fillColor=none;html=1;fontSize=24;fontStyle=1;verticalAlign=middle;align=center;fontFamily=Comic Sans MS;" vertex="1" parent="1">
          <mxGeometry x="1060" y="-20" width="100" height="40" as="geometry" />
        </mxCell>
        <mxCell id="6dIuSW-9CPALPskmh2Ld-8" value="" style="rounded=1;whiteSpace=wrap;html=1;strokeWidth=2;fillWeight=4;hachureGap=8;hachureAngle=45;fillColor=none;sketch=1;strokeColor=#82b366;" vertex="1" parent="1">
          <mxGeometry x="1460" y="30" width="160" height="940" as="geometry" />
        </mxCell>
        <mxCell id="6dIuSW-9CPALPskmh2Ld-9" value="&lt;font color=&quot;#97d077&quot;&gt;第三方&lt;/font&gt;" style="text;strokeColor=none;fillColor=none;html=1;fontSize=24;fontStyle=1;verticalAlign=middle;align=center;fontFamily=Comic Sans MS;" vertex="1" parent="1">
          <mxGeometry x="1490" y="-20" width="100" height="40" as="geometry" />
        </mxCell>
        <mxCell id="6dIuSW-9CPALPskmh2Ld-10" value="&lt;font face=&quot;Verdana&quot; style=&quot;font-size: 20px;&quot;&gt;创建订单&lt;/font&gt;" style="rounded=1;whiteSpace=wrap;html=1;strokeWidth=2;fillWeight=4;hachureGap=8;hachureAngle=45;fillColor=#d5e8d4;sketch=1;strokeColor=#82b366;" vertex="1" parent="1">
          <mxGeometry x="640" y="140" width="120" height="60" as="geometry" />
        </mxCell>
        <mxCell id="6dIuSW-9CPALPskmh2Ld-11" value="&lt;font face=&quot;Verdana&quot; style=&quot;font-size: 20px;&quot;&gt;收银台&lt;/font&gt;" style="rounded=1;whiteSpace=wrap;html=1;strokeWidth=2;fillWeight=4;hachureGap=8;hachureAngle=45;fillColor=#d5e8d4;sketch=1;strokeColor=#82b366;" vertex="1" parent="1">
          <mxGeometry x="250" y="260" width="120" height="60" as="geometry" />
        </mxCell>
        <mxCell id="6dIuSW-9CPALPskmh2Ld-12" value="&lt;font face=&quot;Verdana&quot;&gt;&lt;span style=&quot;font-size: 20px;&quot;&gt;调用具体支付渠道下单&lt;/span&gt;&lt;/font&gt;" style="rounded=1;whiteSpace=wrap;html=1;strokeWidth=2;fillWeight=4;hachureGap=8;hachureAngle=45;fillColor=#d5e8d4;sketch=1;strokeColor=#82b366;" vertex="1" parent="1">
          <mxGeometry x="1040" y="390" width="120" height="60" as="geometry" />
        </mxCell>
        <mxCell id="6dIuSW-9CPALPskmh2Ld-13" value="&lt;font face=&quot;Verdana&quot;&gt;&lt;span style=&quot;font-size: 20px;&quot;&gt;生成支付订单&lt;br&gt;返回参数&lt;/span&gt;&lt;/font&gt;" style="rounded=1;whiteSpace=wrap;html=1;strokeWidth=2;fillWeight=4;hachureGap=8;hachureAngle=45;fillColor=#d5e8d4;sketch=1;strokeColor=#82b366;" vertex="1" parent="1">
          <mxGeometry x="1475" y="460" width="130" height="60" as="geometry" />
        </mxCell>
        <mxCell id="6dIuSW-9CPALPskmh2Ld-14" value="&lt;font face=&quot;Verdana&quot;&gt;&lt;span style=&quot;font-size: 20px;&quot;&gt;回传&lt;/span&gt;&lt;/font&gt;" style="rounded=1;whiteSpace=wrap;html=1;strokeWidth=2;fillWeight=4;hachureGap=8;hachureAngle=45;fillColor=#d5e8d4;sketch=1;strokeColor=#82b366;" vertex="1" parent="1">
          <mxGeometry x="1050" y="584" width="120" height="60" as="geometry" />
        </mxCell>
        <mxCell id="6dIuSW-9CPALPskmh2Ld-15" value="&lt;font face=&quot;Verdana&quot;&gt;&lt;span style=&quot;font-size: 20px;&quot;&gt;拉起支付&lt;br&gt;并支付&lt;/span&gt;&lt;/font&gt;" style="rounded=1;whiteSpace=wrap;html=1;strokeWidth=2;fillWeight=4;hachureGap=8;hachureAngle=45;fillColor=#d5e8d4;sketch=1;strokeColor=#82b366;" vertex="1" parent="1">
          <mxGeometry x="250" y="675" width="120" height="60" as="geometry" />
        </mxCell>
        <mxCell id="6dIuSW-9CPALPskmh2Ld-16" value="&lt;font face=&quot;Verdana&quot;&gt;&lt;span style=&quot;font-size: 20px;&quot;&gt;支付成功&lt;br&gt;通知&lt;/span&gt;&lt;/font&gt;" style="rounded=1;whiteSpace=wrap;html=1;strokeWidth=2;fillWeight=4;hachureGap=8;hachureAngle=45;fillColor=#d5e8d4;sketch=1;strokeColor=#82b366;" vertex="1" parent="1">
          <mxGeometry x="1480" y="690" width="120" height="60" as="geometry" />
        </mxCell>
        <mxCell id="6dIuSW-9CPALPskmh2Ld-17" value="&lt;font face=&quot;Verdana&quot;&gt;&lt;span style=&quot;font-size: 20px;&quot;&gt;接收回调&lt;/span&gt;&lt;/font&gt;" style="rounded=1;whiteSpace=wrap;html=1;strokeWidth=2;fillWeight=4;hachureGap=8;hachureAngle=45;fillColor=#d5e8d4;sketch=1;strokeColor=#82b366;" vertex="1" parent="1">
          <mxGeometry x="1030" y="780" width="120" height="60" as="geometry" />
        </mxCell>
        <mxCell id="6dIuSW-9CPALPskmh2Ld-18" value="&lt;font face=&quot;Verdana&quot; style=&quot;font-size: 20px;&quot;&gt;处理订单订单&lt;/font&gt;" style="rounded=1;whiteSpace=wrap;html=1;strokeWidth=2;fillWeight=4;hachureGap=8;hachureAngle=45;fillColor=#d5e8d4;sketch=1;strokeColor=#82b366;" vertex="1" parent="1">
          <mxGeometry x="650" y="850" width="120" height="60" as="geometry" />
        </mxCell>
        <mxCell id="6dIuSW-9CPALPskmh2Ld-19" value="" style="shape=singleArrow;direction=north;whiteSpace=wrap;html=1;fillColor=#97D077;strokeColor=#82b366;fillStyle=hatch;gradientColor=none;rotation=109;" vertex="1" parent="1">
          <mxGeometry x="469.88" y="30" width="80" height="200" as="geometry" />
        </mxCell>
        <mxCell id="6dIuSW-9CPALPskmh2Ld-20" value="" style="shape=singleArrow;direction=north;whiteSpace=wrap;html=1;fillColor=#97D077;strokeColor=#82b366;fillStyle=hatch;gradientColor=none;rotation=100;" vertex="1" parent="1">
          <mxGeometry x="1280" y="350" width="80" height="200" as="geometry" />
        </mxCell>
        <mxCell id="6dIuSW-9CPALPskmh2Ld-21" value="" style="shape=singleArrow;direction=north;whiteSpace=wrap;html=1;fillColor=#97D077;strokeColor=#82b366;fillStyle=hatch;gradientColor=none;rotation=100;" vertex="1" parent="1">
          <mxGeometry x="650" y="120" width="80" height="510" as="geometry" />
        </mxCell>
        <mxCell id="6dIuSW-9CPALPskmh2Ld-22" value="" style="shape=singleArrow;direction=north;whiteSpace=wrap;html=1;fillColor=#97D077;strokeColor=#82b366;fillStyle=hatch;gradientColor=none;rotation=-105;" vertex="1" parent="1">
          <mxGeometry x="480" y="160" width="80" height="200" as="geometry" />
        </mxCell>
        <mxCell id="6dIuSW-9CPALPskmh2Ld-23" value="" style="shape=singleArrow;direction=north;whiteSpace=wrap;html=1;fillColor=#97D077;strokeColor=#82b366;fillStyle=hatch;gradientColor=none;rotation=-105;" vertex="1" parent="1">
          <mxGeometry x="1280" y="450" width="80" height="200" as="geometry" />
        </mxCell>
        <mxCell id="6dIuSW-9CPALPskmh2Ld-24" value="" style="shape=singleArrow;direction=north;whiteSpace=wrap;html=1;fillColor=#97D077;strokeColor=#82b366;fillStyle=hatch;gradientColor=none;rotation=-100;" vertex="1" parent="1">
          <mxGeometry x="660" y="410" width="80" height="510" as="geometry" />
        </mxCell>
        <mxCell id="6dIuSW-9CPALPskmh2Ld-26" value="" style="shape=singleArrow;direction=north;whiteSpace=wrap;html=1;fillColor=#97D077;strokeColor=#82b366;fillStyle=hatch;gradientColor=none;rotation=-105;" vertex="1" parent="1">
          <mxGeometry x="860" y="740" width="80" height="200" as="geometry" />
        </mxCell>
        <mxCell id="6dIuSW-9CPALPskmh2Ld-27" value="" style="shape=singleArrow;direction=north;whiteSpace=wrap;html=1;fillColor=#97D077;strokeColor=#82b366;fillStyle=hatch;gradientColor=none;rotation=-105;" vertex="1" parent="1">
          <mxGeometry x="1300" y="670" width="80" height="200" as="geometry" />
        </mxCell>
        <mxCell id="6dIuSW-9CPALPskmh2Ld-28" value="&lt;font style=&quot;font-size: 22px;&quot;&gt;1&lt;/font&gt;" style="ellipse;whiteSpace=wrap;html=1;aspect=fixed;fillColor=#d5e8d4;strokeColor=#82b366;" vertex="1" parent="1">
          <mxGeometry x="494.88" y="70" width="30" height="30" as="geometry" />
        </mxCell>
        <mxCell id="6dIuSW-9CPALPskmh2Ld-29" value="&lt;font style=&quot;font-size: 22px;&quot;&gt;2&lt;/font&gt;" style="ellipse;whiteSpace=wrap;html=1;aspect=fixed;fillColor=#d5e8d4;strokeColor=#82b366;" vertex="1" parent="1">
          <mxGeometry x="1290" y="400" width="30" height="30" as="geometry" />
        </mxCell>
        <mxCell id="6dIuSW-9CPALPskmh2Ld-30" value="&lt;font style=&quot;font-size: 22px;&quot;&gt;3&lt;/font&gt;" style="ellipse;whiteSpace=wrap;html=1;aspect=fixed;fillColor=#d5e8d4;strokeColor=#82b366;" vertex="1" parent="1">
          <mxGeometry x="1325" y="720" width="30" height="30" as="geometry" />
        </mxCell>
      </root>
    </mxGraphModel>
  </diagram>
</mxfile>
